# xmcd CD database file
#
# Track frame offsets:
#	150
#	10355
#	25055
#	37350
#	52672
#	66127
#	80215
#	88660
#	96962
#	108795
#
# Disc length: 1629 seconds
#
# Revision: 0
# Processed by: cddbd v1.5PL3 Copyright (c) Steve Scherf et al.
# Submitted via: CDex 1.51
#
DISCID=7b065b0a
DTITLE=VICIOUS DELITE - V-D
DYEAR=1995
DGENRE=Hard Rock
TTITLE0=The Screw
TTITLE1=So Depressed
TTITLE2=Just Like The Rest
TTITLE3=Outta Sight, Outta Mind
TTITLE4=Railbreak
TTITLE5=Pusher
TTITLE6=Inception
TTITLE7=What's Up W/ That
TTITLE8=Like A Dog
TTITLE9=Secret Agent Man
EXTD=YEAR: 1995
EXTT0=
EXTT1=
EXTT2=
EXTT3=
EXTT4=
EXTT5=
EXTT6=
EXTT7=
EXTT8=
EXTT9=
PLAYORDER=
